<svg width="36" height="36" viewBox="0 0 36 36" fill="none" xmlns="http://www.w3.org/2000/svg">
<circle cx="18" cy="18" r="17.5" fill="#F1F4F8" stroke="#E9E1FF"/>
<path d="M18.001 10.3335C15.9924 10.3335 14.3594 11.9665 14.3594 13.9752C14.3594 15.9455 15.9004 17.5402 17.909 17.6092C17.9704 17.6015 18.0317 17.6015 18.0777 17.6092C18.093 17.6092 18.1007 17.6092 18.116 17.6092C18.1237 17.6092 18.1237 17.6092 18.1314 17.6092C20.094 17.5402 21.635 15.9455 21.6427 13.9752C21.6427 11.9665 20.0097 10.3335 18.001 10.3335Z" fill="#67748E"/>
<path d="M21.8955 19.6486C19.7565 18.2226 16.2682 18.2226 14.1138 19.6486C13.1402 20.3003 12.6035 21.1819 12.6035 22.1249C12.6035 23.0679 13.1402 23.9419 14.1062 24.5859C15.1795 25.3066 16.5902 25.6669 18.0008 25.6669C19.4115 25.6669 20.8222 25.3066 21.8955 24.5859C22.8615 23.9343 23.3982 23.0603 23.3982 22.1096C23.3905 21.1666 22.8615 20.2926 21.8955 19.6486Z" fill="#67748E"/>
</svg>
