<svg width="36" height="36" viewBox="0 0 36 36" fill="none" xmlns="http://www.w3.org/2000/svg">
<circle cx="18" cy="18" r="17.5" fill="#F1F4F8" stroke="#E9E1FF"/>
<path d="M26.2431 22.2165C26.2431 22.5308 25.9824 22.7915 25.6681 22.7915H20.3014V22.9832C20.3014 24.1332 19.6114 24.5165 18.7681 24.5165H14.1681C13.3248 24.5165 12.6348 24.1332 12.6348 22.9832V22.7915H10.3348C10.0204 22.7915 9.75977 22.5308 9.75977 22.2165C9.75977 21.9022 10.0204 21.6415 10.3348 21.6415H12.6348V21.4498C12.6348 20.2998 13.3248 19.9165 14.1681 19.9165H18.7681C19.6114 19.9165 20.3014 20.2998 20.3014 21.4498V21.6415H25.6681C25.9824 21.6415 26.2431 21.9022 26.2431 22.2165Z" fill="#67748E"/>
<path d="M26.2431 13.7829C26.2431 14.0972 25.9824 14.3579 25.6681 14.3579H23.3681V14.5496C23.3681 15.6996 22.6781 16.0829 21.8348 16.0829H17.2348C16.3914 16.0829 15.7014 15.6996 15.7014 14.5496V14.3579H10.3348C10.0204 14.3579 9.75977 14.0972 9.75977 13.7829C9.75977 13.4686 10.0204 13.2079 10.3348 13.2079H15.7014V13.0162C15.7014 11.8662 16.3914 11.4829 17.2348 11.4829H21.8348C22.6781 11.4829 23.3681 11.8662 23.3681 13.0162V13.2079H25.6681C25.9824 13.2079 26.2431 13.4686 26.2431 13.7829Z" fill="#67748E"/>
</svg>
