<svg width="25" height="25" viewBox="0 0 25 25" fill="none" xmlns="http://www.w3.org/2000/svg">
<path d="M18.0549 8.54167C18.0549 7.10508 17.4696 5.72733 16.4277 4.7115C15.3859 3.69568 13.9728 3.125 12.4993 3.125C11.0259 3.125 9.61285 3.69568 8.57098 4.7115C7.52911 5.72733 6.94379 7.10508 6.94379 8.54167C6.94379 14.8611 4.16602 17.7083 4.16602 17.7083H20.8327C20.8327 17.7083 18.0549 14.8611 18.0549 8.54167Z" stroke="#53627B" stroke-width="1.5" stroke-linecap="round" stroke-linejoin="round"/>
<path d="M14.5827 20.8335C14.371 21.1503 14.0671 21.4133 13.7015 21.5961C13.3358 21.7789 12.9213 21.8752 12.4993 21.8752C12.0774 21.8752 11.6629 21.7789 11.2972 21.5961C10.9316 21.4133 10.6277 21.1503 10.416 20.8335" stroke="#53627B" stroke-width="1.5" stroke-linecap="round" stroke-linejoin="round"/>
</svg>
