<svg width="25" height="25" viewBox="0 0 25 25" fill="none" xmlns="http://www.w3.org/2000/svg">
<path d="M18.75 3.125C17.9212 3.125 17.1263 3.45424 16.5403 4.04029C15.9542 4.62634 15.625 5.4212 15.625 6.25V18.75C15.625 19.5788 15.9542 20.3737 16.5403 20.9597C17.1263 21.5458 17.9212 21.875 18.75 21.875C19.5788 21.875 20.3737 21.5458 20.9597 20.9597C21.5458 20.3737 21.875 19.5788 21.875 18.75C21.875 17.9212 21.5458 17.1263 20.9597 16.5403C20.3737 15.9542 19.5788 15.625 18.75 15.625H6.25C5.4212 15.625 4.62634 15.9542 4.04029 16.5403C3.45424 17.1263 3.125 17.9212 3.125 18.75C3.125 19.5788 3.45424 20.3737 4.04029 20.9597C4.62634 21.5458 5.4212 21.875 6.25 21.875C7.0788 21.875 7.87366 21.5458 8.45971 20.9597C9.04576 20.3737 9.375 19.5788 9.375 18.75V6.25C9.375 5.4212 9.04576 4.62634 8.45971 4.04029C7.87366 3.45424 7.0788 3.125 6.25 3.125C5.4212 3.125 4.62634 3.45424 4.04029 4.04029C3.45424 4.62634 3.125 5.4212 3.125 6.25C3.125 7.0788 3.45424 7.87366 4.04029 8.45971C4.62634 9.04576 5.4212 9.375 6.25 9.375H18.75C19.5788 9.375 20.3737 9.04576 20.9597 8.45971C21.5458 7.87366 21.875 7.0788 21.875 6.25C21.875 5.4212 21.5458 4.62634 20.9597 4.04029C20.3737 3.45424 19.5788 3.125 18.75 3.125Z" stroke="#53627B" stroke-width="1.5" stroke-linecap="round" stroke-linejoin="round"/>
</svg>
