<svg width="25" height="25" viewBox="0 0 25 25" fill="none" xmlns="http://www.w3.org/2000/svg">
<path d="M14.584 17.7085H14.582V17.7105H14.584V17.7085Z" stroke="#53627B" stroke-width="1.5" stroke-linecap="round" stroke-linejoin="round"/>
<path d="M9.375 15.625H9.373V15.627H9.375V15.625Z" stroke="#53627B" stroke-width="1.5" stroke-linecap="round" stroke-linejoin="round"/>
<path d="M13.541 12.5H13.539V12.502H13.541V12.5Z" stroke="#53627B" stroke-width="1.5" stroke-linecap="round" stroke-linejoin="round"/>
<path d="M8.33398 10.4165H8.33198V10.4185H8.33398V10.4165Z" stroke="#53627B" stroke-width="1.5" stroke-linecap="round" stroke-linejoin="round"/>
<path d="M21.875 7.2915H21.873V7.2935H21.875V7.2915Z" stroke="#53627B" stroke-width="1.5" stroke-linecap="round" stroke-linejoin="round"/>
<path d="M16.666 3.125H16.664V3.127H16.666V3.125Z" stroke="#53627B" stroke-width="2" stroke-linecap="round" stroke-linejoin="round"/>
<path d="M20.834 3.125H20.832V3.127H20.834V3.125Z" stroke="#53627B" stroke-width="2" stroke-linecap="round" stroke-linejoin="round"/>
<path d="M12.5153 21.8749C17.6821 21.8692 21.8693 17.6752 21.875 12.4999C21.5065 12.6042 21.1254 12.6575 20.7425 12.6584C19.4756 12.6677 18.2854 12.0516 17.5602 11.0112C16.9118 10.0733 16.7747 8.87272 17.1951 7.81247C16.9263 7.86049 16.6539 7.88496 16.3808 7.8856C15.167 7.89466 14.0149 7.35029 13.25 6.40623C12.5015 5.49007 12.2088 4.283 12.4544 3.125C7.28518 3.14183 3.1083 7.35278 3.12505 12.5304C3.1419 17.7081 7.34602 21.8917 12.5153 21.8749Z" stroke="#53627B" stroke-width="1.5" stroke-linecap="round" stroke-linejoin="round"/>
</svg>
