<svg width="25" height="25" viewBox="0 0 25 25" fill="none" xmlns="http://www.w3.org/2000/svg">
<path d="M4.16602 21.8748V10.4165" stroke="#53627B" stroke-width="1.5" stroke-linecap="round" stroke-linejoin="round"/>
<path d="M20.834 21.8748V10.4165" stroke="#53627B" stroke-width="1.5" stroke-linecap="round" stroke-linejoin="round"/>
<path d="M4.16602 21.875L20.8327 21.875" stroke="#53627B" stroke-width="1.5" stroke-linecap="round" stroke-linejoin="round"/>
<path d="M10.416 15.5415C10.416 14.4369 11.3114 13.5415 12.416 13.5415H12.5827C13.6873 13.5415 14.5827 14.4369 14.5827 15.5415V21.8748H10.416V15.5415Z" stroke="#53627B" stroke-width="1.5"/>
<path d="M1.98286 6.76359L3.58341 4.09601C3.94486 3.4936 4.59587 3.125 5.2984 3.125H19.7003C20.4028 3.125 21.0538 3.4936 21.4153 4.09601L23.0158 6.76359C23.5489 7.65209 23.3152 8.80061 22.4772 9.41005L22.2694 9.56114C21.5681 10.0712 20.6181 10.0712 19.9168 9.56115L18.2285 8.33333L16.5403 9.56114C15.839 10.0712 14.8889 10.0712 14.1876 9.56115L12.4993 8.33333L10.8111 9.56114C10.1098 10.0712 9.15973 10.0712 8.45842 9.56115L6.77018 8.33333L5.08194 9.56114C4.38064 10.0712 3.43056 10.0712 2.72926 9.56115L2.5215 9.41005C1.68353 8.80061 1.44976 7.65209 1.98286 6.76359Z" stroke="#53627B" stroke-width="1.5" stroke-linecap="round" stroke-linejoin="round"/>
</svg>
