<svg width="25" height="25" viewBox="0 0 25 25" fill="none" xmlns="http://www.w3.org/2000/svg">
<path d="M4.16602 16.6665H20.8327V20.8748C20.8327 21.4271 20.385 21.8748 19.8327 21.8748H5.16601C4.61373 21.8748 4.16602 21.4271 4.16602 20.8748V16.6665Z" stroke="#53627B" stroke-width="1.5" stroke-linejoin="round"/>
<path d="M3.125 7.2915H21.875V14.6665C21.875 15.7711 20.9796 16.6665 19.875 16.6665H5.125C4.02043 16.6665 3.125 15.7711 3.125 14.6665V7.2915Z" stroke="#53627B" stroke-width="1.5" stroke-linejoin="round"/>
<path d="M8.33398 5.125C8.33398 4.02043 9.22941 3.125 10.334 3.125H14.6673C15.7719 3.125 16.6673 4.02043 16.6673 5.125V7.29167H8.33398V5.125Z" stroke="#53627B" stroke-width="1.5" stroke-linejoin="round"/>
<path d="M12.5 13.5415H12.502V13.5435H12.5V13.5415Z" stroke="#53627B" stroke-width="1.5" stroke-linecap="round" stroke-linejoin="round"/>
</svg>
