<svg width="25" height="25" viewBox="0 0 25 25" fill="none" xmlns="http://www.w3.org/2000/svg">
<path d="M12.5007 22.9168C18.2536 22.9168 22.9173 18.2531 22.9173 12.5002C22.9173 6.7472 18.2536 2.0835 12.5007 2.0835C6.74768 2.0835 2.08398 6.7472 2.08398 12.5002C2.08398 18.2531 6.74768 22.9168 12.5007 22.9168Z" stroke="#53627B" stroke-width="1.5" stroke-linecap="round" stroke-linejoin="round"/>
<path d="M12.5 18.75C15.9518 18.75 18.75 15.9518 18.75 12.5C18.75 9.04822 15.9518 6.25 12.5 6.25C9.04822 6.25 6.25 9.04822 6.25 12.5C6.25 15.9518 9.04822 18.75 12.5 18.75Z" stroke="#53627B" stroke-width="1.5" stroke-linecap="round" stroke-linejoin="round"/>
<path d="M12.4993 14.5832C13.6499 14.5832 14.5827 13.6504 14.5827 12.4998C14.5827 11.3492 13.6499 10.4165 12.4993 10.4165C11.3488 10.4165 10.416 11.3492 10.416 12.4998C10.416 13.6504 11.3488 14.5832 12.4993 14.5832Z" stroke="#53627B" stroke-width="1.5" stroke-linecap="round" stroke-linejoin="round"/>
</svg>
