<svg width="25" height="25" viewBox="0 0 25 25" fill="none" xmlns="http://www.w3.org/2000/svg">
<path d="M7.29102 20.8335C7.29102 19.1076 9.62287 17.7085 12.4993 17.7085C15.3758 17.7085 17.7077 19.1076 17.7077 20.8335" stroke="#53627B" stroke-width="1.5" stroke-linecap="round" stroke-linejoin="round"/>
<path d="M18.75 14.8433C20.5895 15.3255 21.875 16.4268 21.875 17.7082" stroke="#53627B" stroke-width="1.5" stroke-linecap="round" stroke-linejoin="round"/>
<path d="M6.25 14.8433C4.41052 15.3255 3.125 16.4268 3.125 17.7082" stroke="#53627B" stroke-width="1.5" stroke-linecap="round" stroke-linejoin="round"/>
<path d="M12.5 14.5835C14.2259 14.5835 15.625 13.1844 15.625 11.4585C15.625 9.73261 14.2259 8.3335 12.5 8.3335C10.7741 8.3335 9.375 9.73261 9.375 11.4585C9.375 13.1844 10.7741 14.5835 12.5 14.5835Z" stroke="#53627B" stroke-width="1.5" stroke-linecap="round" stroke-linejoin="round"/>
<path d="M18.7507 10.6628C19.39 10.0906 19.7923 9.25902 19.7923 8.3335C19.7923 6.60761 18.3932 5.2085 16.6673 5.2085C15.8669 5.2085 15.1369 5.50939 14.584 6.00422" stroke="#53627B" stroke-width="1.5" stroke-linecap="round" stroke-linejoin="round"/>
<path d="M6.25065 10.6628C5.61133 10.0906 5.20898 9.25902 5.20898 8.3335C5.20898 6.60761 6.60809 5.2085 8.33398 5.2085C9.13435 5.2085 9.86445 5.50939 10.4173 6.00422" stroke="#53627B" stroke-width="1.5" stroke-linecap="round" stroke-linejoin="round"/>
</svg>
