<svg width="119" height="23" viewBox="0 0 119 23" fill="none" xmlns="http://www.w3.org/2000/svg">
<path fill-rule="evenodd" clip-rule="evenodd" d="M8.75476 0.0400642C5.95387 0.234954 3.63453 1.44281 2.07669 3.51788C1.05523 4.87848 0.399006 6.51869 0.194748 8.22147L0.129738 8.76356L0.479881 8.81445C1.92762 9.02483 3.40958 9.08636 4.51252 8.98182L5.09106 8.92695L5.14443 8.52809C5.28816 7.45481 5.89852 6.13298 6.56915 5.44299C7.83125 4.14435 10.0024 3.80979 11.7229 4.64872C13.3477 5.44091 14.4308 7.61525 14.2971 9.81694C14.1745 11.8359 13.1643 13.5649 11.6939 14.2722C10.334 14.9263 8.52076 14.8489 7.31565 14.0853C6.9011 13.8227 6.20624 13.1274 5.98845 12.7573C5.90499 12.6155 5.81411 12.4995 5.78643 12.4995C5.75876 12.4995 5.45371 12.7808 5.10848 13.1245C4.41388 13.8163 3.73515 14.6864 3.14781 15.6381L2.76154 16.2641L3.17532 16.6332C4.92647 18.1954 6.9624 18.9096 9.66767 18.9107C12.4787 18.9117 14.5523 18.1552 16.3406 16.4762C17.6367 15.2592 18.4638 13.8018 18.9637 11.8543C19.1601 11.0896 19.1872 10.8082 19.1902 9.51388C19.1936 7.97111 19.1327 7.52802 18.7506 6.31186C17.6608 2.84399 14.4994 0.322879 10.9348 0.0790932C10.5461 0.0525251 10.0923 0.019293 9.92633 0.00518686C9.76035 -0.00891932 9.2332 0.00674591 8.75476 0.0400642Z" fill="#1A222A"/>
<path fill-rule="evenodd" clip-rule="evenodd" d="M9.42257 7.71035C8.0745 8.00095 6.65229 8.76944 6.52572 9.27561C6.47191 9.49058 6.3043 9.54519 5.06841 9.75064C4.06238 9.91792 1.2615 9.83709 0.206241 9.61036L0 9.56604L0.0606132 10.3162C0.197532 12.0096 0.972831 14.1131 1.88177 15.2572L2.06499 15.4879L2.56568 14.7168C3.76052 12.8769 5.22913 11.432 6.63168 10.7162C6.9732 10.5419 6.99372 10.5408 7.12745 10.6892C7.3305 10.9143 7.30257 11.0619 6.9638 11.5562C6.67065 11.984 6.66712 11.9986 6.85603 11.9981C7.45181 11.9966 8.38033 11.4861 8.57019 11.0557C8.66132 10.8491 8.75867 10.7755 8.99094 10.7376C9.5137 10.6523 10.4798 10.3458 10.9003 10.1319C11.3768 9.88953 12.2235 9.12486 12.5682 8.6256C12.8048 8.28299 12.8071 8.26906 12.6477 8.14712C12.0494 7.68958 10.4953 7.47911 9.42257 7.71035ZM6.18928 7.90359C5.96106 7.95041 5.54487 8.27286 5.70938 8.27546C5.7774 8.2765 6.00589 8.3614 6.21722 8.46403C6.5183 8.61029 6.63142 8.62924 6.74023 8.55144C6.81654 8.49683 7.05365 8.35785 7.26704 8.24249L7.65504 8.0328L7.41233 7.93873C7.17867 7.84821 6.54787 7.83003 6.18928 7.90359Z" fill="#3D5EB4"/>
<path d="M37.8618 0.815227V19H34.1325L26.8959 8.50469H26.7805V19H22.3852V0.815227H26.1678L33.3245 11.2928H33.4755V0.815227H37.8618ZM40.72 0.815227H45.6302L49.475 8.42477H49.6348L53.4795 0.815227H58.3898L51.7392 12.9266V19H47.3706V12.9266L40.72 0.815227ZM65.6809 0.815227L69.0017 6.56012H69.1438L72.5002 0.815227H77.4193L71.9319 9.90761L77.5969 19H72.5535L69.1438 13.1929H69.0017L65.5921 19H60.5842L66.2225 9.90761L60.7263 0.815227H65.6809Z" fill="#1A222A"/>
<path d="M90.6277 11.0595H87.7673C87.729 10.7659 87.6507 10.5008 87.5323 10.2643C87.4139 10.0279 87.2574 9.82574 87.0628 9.65793C86.8682 9.49013 86.6374 9.36236 86.3703 9.27464C86.1071 9.18311 85.8153 9.13734 85.495 9.13734C84.9267 9.13734 84.4367 9.27655 84.025 9.55496C83.6171 9.83337 83.3028 10.2357 83.0819 10.762C82.8649 11.2884 82.7566 11.9253 82.7571 12.6728C82.7576 13.4508 82.8686 14.103 83.0901 14.6293C83.3155 15.1518 83.6304 15.5465 84.0348 15.8135C84.4431 16.0766 84.9256 16.2082 85.4824 16.2082C85.7951 16.2082 86.0792 16.1682 86.3347 16.0881C86.594 16.008 86.8208 15.8917 87.0153 15.7391C87.2135 15.5827 87.3754 15.394 87.5011 15.1728C87.6307 14.9477 87.7201 14.6941 87.7695 14.4119L90.6299 14.4291C90.5806 14.9477 90.4303 15.4588 90.1789 15.9622C89.9314 16.4656 89.5903 16.9252 89.1558 17.3409C88.7213 17.7528 88.1914 18.0808 87.5661 18.3249C86.9446 18.569 86.2315 18.691 85.4268 18.691C84.3666 18.691 83.4168 18.4584 82.5775 17.9931C81.7419 17.524 81.0817 16.8413 80.5968 15.9451C80.1118 15.0488 79.8689 13.958 79.8681 12.6728C79.8673 11.3837 80.1125 10.291 80.6039 9.39478C81.0953 8.49853 81.7604 7.81775 82.5991 7.35246C83.4379 6.88718 84.3778 6.65453 85.419 6.65453C86.1284 6.65453 86.7844 6.75369 87.3871 6.95201C87.9898 7.14652 88.5201 7.43256 88.978 7.81013C89.4359 8.18388 89.8081 8.64345 90.0945 9.18883C90.3808 9.73421 90.5586 10.3578 90.6277 11.0595ZM92.8973 18.5308L92.8897 6.81471H97.7294C98.6066 6.81471 99.3637 6.97299 100.001 7.28954C100.642 7.60227 101.136 8.05231 101.483 8.63964C101.831 9.22316 102.005 9.91537 102.005 10.7163C102.006 11.5286 101.829 12.2189 101.475 12.7872C101.12 13.3516 100.617 13.7826 99.9652 14.0801C99.3132 14.3738 98.5411 14.5206 97.6486 14.5206H94.588L94.5866 12.2895H97.1209C97.548 12.2895 97.9046 12.2342 98.1905 12.1236C98.4803 12.0092 98.6995 11.8375 98.8481 11.6087C98.9967 11.3761 99.0708 11.0786 99.0706 10.7163C99.0704 10.354 98.9958 10.0546 98.8469 9.81812C98.698 9.57784 98.4786 9.39859 98.1887 9.28036C97.8988 9.15832 97.5421 9.0973 97.1188 9.0973H95.7229L95.7291 18.5308H92.8973ZM99.4898 13.1762L102.411 18.5308H99.3217L96.4578 13.1762H99.4898ZM104.2 6.81471H107.707L110.687 14.0686H110.824L113.794 6.81471H117.301L117.308 18.5308H114.551L114.546 11.3341H114.449L111.639 18.4565H109.877L107.058 11.2941H106.961L106.965 18.5308H104.208L104.2 6.81471Z" fill="#3D5EB4"/>
</svg>
